<svg id="Capa_1" enable-background="new 0 0 510 510" height="512" viewBox="0 0 510 510" width="512" xmlns="http://www.w3.org/2000/svg"><g><path d="m413.004 220h30v229.269h-30z" fill="#9ab8c2"/><path d="m255 110h15v295h-15z" fill="#9ab8c2"/><path d="m240 110h15v295h-15z" fill="#b3d1d6"/><path d="m358.01 147.32-16.02 25.36-86.99-54.94v-117.74h15v91.73z" fill="#b3d1d6"/><path d="m255 0v117.74l-86.99 54.94-16.02-25.36 88.01-55.59v-91.73z" fill="#e5eaee"/><path d="m509.74 288.564-64.715-81.381 30.019-86.689-28.333-9.863-30.092 86.451-107.709 22.56 6.151 29.363 107.06-22.425 64.139 80.656z" fill="#b3d1d6"/><path d="m67.842 220h30v224.98h-30z" fill="#b3d1d6"/><path d="m510 476v34h-255l-22.82-50 22.82-70h9.12c55.36 0 110.45 13.77 159.31 39.83z" fill="#00a98f"/><path d="m255 390v120h-255v-34l86.57-46.17c48.86-26.06 103.95-39.83 159.31-39.83z" fill="#00dc80"/><path d="m201.936 219.642-107.709-22.56-30.093-86.451-28.333 9.863 30.02 86.689-64.716 81.381 23.481 18.672 64.138-80.656 107.061 22.425z" fill="#e5eaee"/></g></svg>