<svg id="Capa_1" enable-background="new 0 0 510 510" height="512" viewBox="0 0 510 510" width="512" xmlns="http://www.w3.org/2000/svg" xmlns:xlink="http://www.w3.org/1999/xlink"><linearGradient id="lg1"><stop offset="0" stop-color="#a2e62e"/><stop offset=".7542" stop-color="#09a76d"/><stop offset="1" stop-color="#017b4e"/></linearGradient><linearGradient id="SVGID_1_" gradientUnits="userSpaceOnUse" x1="100.045" x2="301.158" xlink:href="#lg1" y1="396.739" y2="396.739"/><linearGradient id="lg2"><stop offset="0" stop-color="#a2e62e"/><stop offset="1" stop-color="#02905d"/></linearGradient><linearGradient id="SVGID_2_" gradientUnits="userSpaceOnUse" x1="115.044" x2="238.184" xlink:href="#lg2" y1="396.739" y2="396.739"/><linearGradient id="SVGID_3_" gradientUnits="userSpaceOnUse" x1="-2.803" x2="208.554" xlink:href="#lg1" y1="181.006" y2="181.006"/><linearGradient id="SVGID_4_" gradientUnits="userSpaceOnUse" x1="-44.194" x2="185.202" xlink:href="#lg2" y1="227.572" y2="227.572"/><linearGradient id="SVGID_5_" gradientUnits="userSpaceOnUse" x1="21" x2="351.606" y1="261.468" y2="261.468"><stop offset="0" stop-color="#09a76d"/><stop offset="1" stop-color="#026841"/></linearGradient><linearGradient id="lg3"><stop offset="0" stop-color="#a79ba7"/><stop offset=".7487" stop-color="#7a6d79"/><stop offset="1" stop-color="#685e68"/></linearGradient><linearGradient id="SVGID_6_" gradientUnits="userSpaceOnUse" x1="298" x2="434.059" xlink:href="#lg3" y1="342.67" y2="342.67"/><linearGradient id="lg4"><stop offset="0" stop-color="#7a6d79"/><stop offset="1" stop-color="#554e56"/></linearGradient><linearGradient id="SVGID_7_" gradientUnits="userSpaceOnUse" x1="371.5" x2="436.494" xlink:href="#lg4" y1="342.67" y2="342.67"/><linearGradient id="lg5"><stop offset="0" stop-color="#f8f6f7"/><stop offset=".1788" stop-color="#f8f6f7"/><stop offset="1" stop-color="#e7e6f5"/></linearGradient><linearGradient id="SVGID_8_" gradientUnits="userSpaceOnUse" x1="267.539" x2="324.21" xlink:href="#lg5" y1="99.3" y2="99.3"/><linearGradient id="SVGID_9_" gradientUnits="userSpaceOnUse" x1="400.845" x2="457.515" xlink:href="#lg5" y1="99.3" y2="99.3"/><linearGradient id="SVGID_10_" gradientUnits="userSpaceOnUse" x1="254.563" x2="435.607" xlink:href="#lg3" y1="241.146" y2="241.146"/><linearGradient id="SVGID_11_" gradientUnits="userSpaceOnUse" x1="263.563" x2="528.61" xlink:href="#lg4" y1="241.145" y2="241.145"/><linearGradient id="SVGID_12_" gradientUnits="userSpaceOnUse" x1="214.858" x2="542.078" xlink:href="#lg3" y1="129.3" y2="129.3"/><g><g><path d="m240.328 337.403c-28.057.38-53.399 9.508-71.977 28.086s-27.706 43.92-28.086 71.977c-.14 10.351 8.257 18.748 18.608 18.608 28.057-.38 53.399-9.508 71.977-28.086s27.706-43.92 28.086-71.977c.141-10.351-8.257-18.748-18.608-18.608z" fill="url(#SVGID_1_)"/><path d="m240.328 337.403c-5.99.081-11.847.586-17.55 1.472 6.631 2.829 11.252 9.439 11.147 17.136-.38 28.058-9.508 53.399-28.086 71.977-14.612 14.612-33.417 23.353-54.427 26.615 2.286.975 4.807 1.508 7.461 1.472 28.057-.38 53.399-9.508 71.977-28.086s27.706-43.92 28.086-71.977c.141-10.352-8.257-18.749-18.608-18.609z" fill="url(#SVGID_2_)"/></g><g><path d="m0 181.006c0 62.313 27.19 120.12 73.607 167.81 17.124 17.594 45.289 17.594 62.413 0 46.416-47.69 73.607-105.497 73.607-167.81s-27.19-120.12-73.607-167.81c-17.124-17.594-45.289-17.594-62.413 0-46.417 47.69-73.607 105.497-73.607 167.81z" fill="url(#SVGID_3_)"/><path d="m190.884 93.133c.368 4.409.566 8.867.566 13.371 0 87.624-71.033 158.657-158.657 158.657-5.394 0-10.725-.272-15.981-.798 12.607 30.476 31.94 58.916 56.795 84.453 17.124 17.594 45.289 17.594 62.413 0 46.416-47.691 73.607-105.497 73.607-167.81-.001-30.601-6.572-60.111-18.743-87.873z" fill="url(#SVGID_4_)"/></g><path d="m349.563 229.288v135.837c0 63.343-51.533 114.875-114.875 114.875s-114.874-51.532-114.874-114.875l-.319-46.348c0-16.341 6.492-32.014 18.047-43.569l48.169-48.169c5.933-5.933 5.695-15.698-.711-21.325-5.845-5.135-14.801-4.483-20.302 1.019l-45.202 45.203v-19.669c0-24.795 9.85-48.574 27.382-66.107l38.479-38.479c5.502-5.502 6.154-14.459 1.019-20.305-5.627-6.406-15.392-6.641-21.324-.709l-45.555 45.556v-124.179c0-7.781-5.872-14.575-13.636-15.077-8.508-.551-15.581 6.187-15.581 14.577v124.826l-45.348-45.348c-5.501-5.502-14.457-6.154-20.302-1.019-6.406 5.627-6.643 15.392-.711 21.325l38.979 38.979c17.532 17.533 27.382 41.312 27.382 66.107v19.669l-45.701-45.701c-5.933-5.934-15.7-5.695-21.327.711-5.134 5.845-4.481 14.799 1.02 20.3l47.961 47.962c11.555 11.555 18.047 27.227 18.047 43.569l-.464 46.202c-.003 79.884 64.988 144.874 144.872 144.874s144.875-64.99 144.875-144.875v-135.837z" fill="url(#SVGID_5_)"/><path d="m321.683 314.21h85.761c12.294 0 22.261 9.967 22.261 22.261 0 19.142-15.518 34.66-34.66 34.66h-60.964c-19.142 0-34.66-15.518-34.66-34.66.001-12.295 9.967-22.261 22.262-22.261z" fill="url(#SVGID_6_)"/><path d="m407.443 314.21h-40.02c12.294 0 22.261 9.967 22.261 22.261 0 19.142-15.518 34.66-34.66 34.66h40.02c19.142 0 34.66-15.518 34.66-34.66.001-12.295-9.966-22.261-22.261-22.261z" fill="url(#SVGID_7_)"/><g><g><path d="m297.91 0c-15.059 0-27.267 12.208-27.267 27.266v144.067c0 15.059 12.208 27.266 27.266 27.266 15.059 0 27.266-12.208 27.266-27.266v-144.067c.002-15.058-12.206-27.266-27.265-27.266z" fill="url(#SVGID_8_)"/><path d="m431.216 0c-15.059 0-27.267 12.208-27.267 27.266v144.067c0 15.059 12.208 27.266 27.266 27.266 15.059 0 27.266-12.208 27.266-27.266v-144.067c.001-15.058-12.206-27.266-27.265-27.266z" fill="url(#SVGID_9_)"/></g><path d="m364.563 342.675c-68.299 0-123.667-55.367-123.667-123.667v-79.39h247.334v79.39c0 68.299-55.368 123.667-123.667 123.667z" fill="url(#SVGID_10_)"/><path d="m488.233 139.62v77.994c0 68.266-54.731 124.69-122.996 125.054-7.043.038-13.959-.513-20.684-1.608 58.78-9.56 103.66-60.56 103.66-122.05 0-19.164-15.536-34.7-34.7-34.7h-172.62v-44.69z" fill="url(#SVGID_11_)"/><path d="m480 159.3h-230.874c-16.569 0-30-13.431-30-30 0-16.569 13.431-30 30-30h230.874c16.569 0 30 13.431 30 30 0 16.568-13.431 30-30 30z" fill="url(#SVGID_12_)"/></g></g></svg>