<svg id="Layer_1" enable-background="new 0 0 512 512" height="512" viewBox="0 0 512 512" width="512" xmlns="http://www.w3.org/2000/svg"><g><path d="m330.182 502.14h-148.721c12.44-40.86 32.36-80.72 32.36-80.72h84.001c-.001 0 19.92 39.86 32.36 80.72z" fill="#edf8f9"/><path d="m330.182 502.14h-32c-12.44-40.86-32.36-80.72-32.36-80.72h32c-.001 0 19.92 39.86 32.36 80.72z" fill="#daeeef"/><path d="m376.597 496.824c-.5-4.11-4.231-7.041-8.352-6.537-.552.067-55.739 6.713-112.244 6.713s-111.692-6.646-112.244-6.713c-4.112-.505-7.852 2.425-8.352 6.537-.502 4.112 2.425 7.851 6.536 8.353.56.068 56.614 6.824 114.059 6.824s113.5-6.755 114.059-6.824c4.113-.502 7.04-4.241 6.538-8.353z" fill="#96c9d6"/><path d="m331.031 382.45c-1.1 22.69-3 37.01-3.08 37.61-.45 3.33-3.06 5.96-6.38 6.43-.92.13-9.33 1.3-22.92 2.33-11.33.87-26.25 1.64-43.41 1.64-19.45 0-41.76-.99-65-3.96-3.41-.43-6.09-3.13-6.5-6.54-1.46-12.07-2.51-24.74-3.13-37.65-.1-2.05.65-4.05 2.07-5.53 1.41-1.49 3.37-2.33 5.42-2.33h.01l112.041.12 23.39.02c2.05 0 4.01.84 5.43 2.33 1.409 1.48 2.149 3.48 2.059 5.53z" fill="#96c9d6"/><path d="m331.031 382.45c-1.1 22.69-3 37.01-3.08 37.61-.45 3.33-3.06 5.96-6.38 6.43-.92.13-9.33 1.3-22.92 2.33 1.53-19.28 1.78-38.19 1.5-54.25l23.39.02c2.05 0 4.01.84 5.43 2.33 1.41 1.48 2.15 3.48 2.06 5.53z" fill="#77a5af"/><path d="m504.502 374.24c-10.33.74-20.61 1.43-30.84 2.06-250.611 15.47-466.162-2.06-466.162-2.06s31.89-136.24 88.66-262.97c0 0 108.491-8.32 290.082-1.26 9.66.37 19.53.79 29.6 1.26 56.78 126.73 88.66 262.97 88.66 262.97z" fill="#66f1ff"/><path d="m504.502 374.24c-10.33.74-20.61 1.43-30.84 2.06-36.29-143.65-74.44-236.59-87.42-266.29 9.66.37 19.53.79 29.6 1.26 56.78 126.73 88.66 262.97 88.66 262.97z" fill="#66d4ff"/><path d="m511.803 372.54c-.32-1.37-32.7-138.4-89.11-264.33-1.16-2.58-3.67-4.29-6.5-4.42-11.31-.52-22.43-.99-33.34-1.4-141.591-5.33-248.482-1.56-287.272 1.41-2.74.21-5.14 1.9-6.27 4.41-56.411 125.93-88.792 262.96-89.112 264.33-.5 2.13-.05 4.36 1.24 6.13 1.29 1.76 3.28 2.88 5.45 3.06 1.56.12 105.911 8.4 252.421 8.4 65.46 0 139.331-1.65 216.211-6.43 9.8-.6 19.64-1.26 29.52-1.97 2.19-.16 4.2-1.27 5.5-3.03 1.302-1.77 1.761-4.02 1.262-6.16zm-410.623-254.11c14.46-.99 36.33-2.04 64.37-2.77-3.04 10.27-8.2 28.02-14.46 50.9-32.56.91-57.41 1.99-71 2.64 6.58-16.85 13.62-33.9 21.09-50.77zm-26.97 66.08c10.3-.53 36.35-1.78 72.79-2.83-6.15 22.98-13.05 49.9-19.92 78.93-37.65.93-65.82 2.01-80.22 2.61 7.8-24.36 16.95-51.13 27.35-78.71zm-57.31 182.91c3.71-14.76 12.26-47.47 25.16-88.97 11.3-.51 40.44-1.71 81.501-2.75-7.1 30.86-14.02 63.66-19.86 96.35-42.271-1.69-72.701-3.64-86.801-4.63zm231.421 7.7c-49.03-.14-92.991-1.19-129.481-2.5 5.95-33.07 13-66.22 20.19-97.29 31.42-.71 68.57-1.28 109.291-1.41zm0-116.2c-39.18.12-75.07.66-105.741 1.33 6.96-29.24 13.93-56.21 20.07-78.99 25.07-.62 54.1-1.12 85.67-1.24v78.9zm0-93.9c-29.84.12-57.42.57-81.561 1.14 6.74-24.5 12.05-42.52 14.55-50.86 19.87-.4 42.33-.63 67.01-.59v50.31zm216.811 98.17c-7.86-.36-15.72-.7-23.56-1.01-19.16-.76-38.24-1.36-57.11-1.84-6.89-29.06-13.82-55.98-19.97-78.93 16.72.49 33.65 1.12 50.64 1.92 7.54.36 15.1.75 22.65 1.17 10.4 27.57 19.55 54.33 27.35 78.69zm-75.6-145.53c7.03.28 14.15.58 21.35.9 7.44 16.81 14.45 33.79 21.01 50.59-7.46-.39-14.92-.76-22.37-1.09-16.5-.73-32.92-1.32-49.14-1.77-6.16-22.47-11.24-39.92-14.26-50.1 14.07.39 28.55.88 43.41 1.47zm-126.211-2.9c20.95.13 43.36.44 67.02 1.01 2.48 8.27 7.72 26.01 14.38 50.13-28.14-.64-55.511-.91-81.401-.9v-50.24zm0 65.23c27.14 0 55.93.29 85.521 1.01 6.14 22.74 13.13 49.71 20.12 78.98-36.6-.78-72.19-1.09-105.641-1.08zm0 195.15v-101.24c34.53-.01 71.341.32 109.191 1.16 7.23 31.17 14.31 64.46 20.3 97.69-45.47 1.66-89.061 2.34-129.491 2.39zm208.461-6.23c-21.57 1.32-42.89 2.39-63.84 3.25-5.87-32.84-12.82-65.77-19.95-96.72 19.25.5 38.73 1.14 58.26 1.94 7.89.32 15.79.67 23.69 1.05 12.89 41.48 21.44 74.19 25.16 88.97-7.8.54-15.58 1.04-23.32 1.51z" fill="#edf8f9"/><path d="m131.979 13.735c1.186-.317 29.549-7.817 74.366-11.63 14.231-1.211 31.096-2.105 49.893-2.105 35.751 0 78.468 3.235 123.188 13.676 4.034.942 6.54 4.975 5.599 9.009s-4.976 6.539-9.009 5.599c-126.758-29.594-239.04-.357-240.159-.058-3.997 1.068-8.111-1.306-9.182-5.306-1.072-4.002 1.303-8.114 5.304-9.185z" fill="#fff294"/><path d="m193.763 51.951c1.477-.22 25.233-3.673 60.893-3.673 18.323 0 39.792.912 62.99 3.642 4.114.484 7.056 4.212 6.572 8.326s-4.215 7.053-8.325 6.572c-66.163-7.788-119.248-.13-119.918-.031-4.092.613-7.913-2.214-8.524-6.312-.611-4.096 2.215-7.912 6.312-8.524z" fill="#fff294"/><path d="m510.542 378.7c-1.3 1.76-3.31 2.87-5.5 3.03-9.88.71-19.72 1.37-29.52 1.97-1.24-4.99-2.49-9.92-3.74-14.79 7.74-.47 15.52-.97 23.32-1.51-3.72-14.78-12.27-47.49-25.16-88.97-7.9-.38-15.8-.73-23.69-1.05-1.57-5.17-3.13-10.24-4.68-15.2 7.84.31 15.7.65 23.56 1.01-7.8-24.36-16.95-51.12-27.35-78.69-7.55-.42-15.11-.81-22.65-1.17-1.93-5.34-3.8-10.43-5.61-15.27 7.45.33 14.91.7 22.37 1.09-6.56-16.8-13.57-33.78-21.01-50.59-7.2-.32-14.32-.62-21.35-.9-3.09-7.3-5.38-12.42-6.68-15.27 10.91.41 22.03.88 33.34 1.4 2.83.13 5.34 1.84 6.5 4.42 56.41 125.93 88.79 262.96 89.11 264.33.5 2.14.041 4.39-1.26 6.16z" fill="#daeeef"/></g></svg>